<svg width="18" height="18" viewBox="0 0 18 18" fill="none" xmlns="http://www.w3.org/2000/svg">
<path d="M8.75 0C7.01942 0 5.32769 0.513179 3.88876 1.47464C2.44983 2.4361 1.32832 3.80267 0.666058 5.40152C0.00379123 7.00037 -0.169488 8.75971 0.168133 10.457C0.505753 12.1544 1.33911 13.7135 2.56282 14.9372C3.78653 16.1609 5.34563 16.9942 7.04296 17.3319C8.7403 17.6695 10.4996 17.4962 12.0985 16.8339C13.6973 16.1717 15.0639 15.0502 16.0254 13.6112C16.9868 12.1723 17.5 10.4806 17.5 8.75C17.5 6.42936 16.5781 4.20376 14.9372 2.56282C13.2962 0.921872 11.0706 0 8.75 0ZM7.5 12.2437L4.375 9.11875L5.36875 8.125L7.5 10.2563L12.1313 5.625L13.1288 6.61625L7.5 12.2437Z" fill="url(#paint0_linear_36_162)"/>
<defs>
<linearGradient id="paint0_linear_36_162" x1="8.75" y1="0" x2="8.75" y2="17.5" gradientUnits="userSpaceOnUse">
<stop offset="0.0769231" stop-color="#1E17DA"/>
<stop offset="0.509615" stop-color="#7305AD"/>
<stop offset="1" stop-color="#DB429D"/>
</linearGradient>
</defs>
</svg>
