<svg width="76" height="17" viewBox="0 0 76 17" fill="none" xmlns="http://www.w3.org/2000/svg">
<path d="M19.9053 13.1185C19.372 13.1185 18.8344 12.8841 18.2924 12.4153L18.1828 12.9443H16.2861L18.0796 4.53835L20.0343 4.2803L18.4473 11.6863C18.6881 11.8627 18.9397 11.9508 19.2021 11.9508C19.4558 11.9508 19.6967 11.8713 19.9246 11.7121C20.1569 11.553 20.3698 11.3272 20.5633 11.0348C20.9203 10.4972 21.2106 9.76172 21.4342 8.82844C21.6363 7.95537 21.7374 7.05864 21.7374 6.13826C21.7374 5.2781 21.5611 4.63727 21.2084 4.21579C20.8816 3.83302 20.4149 3.64163 19.8085 3.64163C19.3182 3.64163 18.8623 3.71474 18.4408 3.86097C18.0193 4.0072 17.6538 4.21794 17.3441 4.49319C17.0259 4.77705 16.7807 5.11897 16.6087 5.51894C16.4366 5.91892 16.3506 6.36406 16.3506 6.85435C16.3506 7.12961 16.3807 7.34895 16.4409 7.51238C16.4581 7.56829 16.4796 7.61775 16.5055 7.66076C16.5227 7.69086 16.5313 7.72097 16.5313 7.75108C16.0711 7.75108 15.7205 7.65646 15.4797 7.46722C15.2389 7.27368 15.1184 6.95972 15.1184 6.52534C15.1184 6.22858 15.1765 5.93612 15.2926 5.64797C15.4087 5.35551 15.5765 5.07811 15.7958 4.81576C16.0109 4.55771 16.2689 4.32116 16.57 4.10612C16.8753 3.88678 17.2086 3.69754 17.5699 3.53841C18.3355 3.20294 19.1569 3.03521 20.0343 3.03521C20.8471 3.03521 21.531 3.21369 22.0858 3.57066C22.5933 3.90183 22.9718 4.36202 23.2212 4.95123C23.4491 5.51034 23.5631 6.14041 23.5631 6.84145C23.5631 7.33605 23.518 7.83709 23.4276 8.34459C23.3416 8.85209 23.2169 9.34239 23.0535 9.81548C22.89 10.28 22.6944 10.7144 22.4664 11.1186C22.2428 11.5186 21.9955 11.867 21.7245 12.1637C21.445 12.4691 21.1504 12.7056 20.8407 12.8734C20.5353 13.0368 20.2235 13.1185 19.9053 13.1185ZM26.0081 5.62216C25.8662 5.62216 25.7307 5.59636 25.6017 5.54475C25.4727 5.48884 25.3609 5.41357 25.2663 5.31895C25.1716 5.22864 25.0964 5.11897 25.0405 4.98994C24.9888 4.86091 24.963 4.72544 24.963 4.58351C24.963 4.44158 24.9888 4.30611 25.0405 4.17708C25.0964 4.04806 25.1716 3.93408 25.2663 3.83517C25.3609 3.73625 25.4727 3.66098 25.6017 3.60937C25.7307 3.55346 25.8662 3.52551 26.0081 3.52551C26.1501 3.52551 26.2856 3.55346 26.4146 3.60937C26.5436 3.66098 26.6576 3.73625 26.7565 3.83517C26.8554 3.93408 26.9307 4.04806 26.9823 4.17708C27.0382 4.30611 27.0662 4.44158 27.0662 4.58351C27.0662 4.72544 27.0382 4.86091 26.9823 4.98994C26.9307 5.11897 26.8554 5.22864 26.7565 5.31895C26.6576 5.41357 26.5436 5.48884 26.4146 5.54475C26.2856 5.59636 26.1501 5.62216 26.0081 5.62216ZM25.1114 13.0218C24.6899 13.0218 24.3566 12.897 24.1115 12.6476C23.8362 12.3723 23.6986 11.9702 23.6986 11.4412C23.6986 11.1917 23.733 10.9036 23.8018 10.5767L24.6985 6.33825H26.6017L25.6533 10.8283C25.6189 10.9401 25.6017 11.0821 25.6017 11.2541C25.6017 11.4347 25.6426 11.5616 25.7243 11.6347C25.8103 11.7078 25.9479 11.7444 26.1372 11.7444C26.2662 11.7444 26.3909 11.7164 26.5113 11.6605C26.6361 11.6003 26.75 11.5186 26.8533 11.4154C27.064 11.2046 27.2231 10.9251 27.3307 10.5767H27.8855C27.6489 11.2434 27.3522 11.7745 26.9952 12.1702C26.6941 12.4927 26.3544 12.725 25.9759 12.8669C25.7006 12.9701 25.4125 13.0218 25.1114 13.0218ZM29.6725 16.2474C29.466 16.2474 29.2725 16.2194 29.0918 16.1635C28.9155 16.1119 28.7628 16.0323 28.6338 15.9248C28.4962 15.8173 28.3887 15.6818 28.3112 15.5184C28.2338 15.3593 28.1951 15.1743 28.1951 14.9636C28.1951 14.4647 28.4295 14.0367 28.8983 13.6798C29.251 13.4174 29.7348 13.1895 30.3498 12.9959L30.5111 12.2992C30.0595 12.7809 29.5305 13.0218 28.9241 13.0218C28.4209 13.0218 28.0145 12.8648 27.7048 12.5508C27.3436 12.1809 27.1629 11.6304 27.1629 10.8993C27.1629 10.5896 27.1952 10.2628 27.2597 9.9187C27.3199 9.57463 27.4102 9.23487 27.5306 8.8994C27.8059 8.14245 28.1822 7.53173 28.6596 7.06724C29.2101 6.53824 29.8445 6.27374 30.5627 6.27374C30.9197 6.27374 31.1864 6.3361 31.3627 6.46083C31.5433 6.58125 31.6336 6.74253 31.6336 6.94467V7.02208L31.7756 6.33825H33.6787L32.3691 12.4669C32.7863 12.3293 33.1196 12.1229 33.369 11.8476C33.64 11.5509 33.8615 11.1272 34.0335 10.5767H34.5883C34.3518 11.3595 33.9991 11.9637 33.5303 12.3895C33.1862 12.6992 32.7605 12.9185 32.253 13.0476L32.053 14.0023C31.8852 14.8453 31.5498 15.456 31.0466 15.8345C30.681 16.1098 30.223 16.2474 29.6725 16.2474ZM29.7821 11.7444C29.9714 11.7444 30.1714 11.6562 30.3821 11.4799C30.61 11.2821 30.7627 11.0262 30.8401 10.7122L31.5111 7.58334C31.5111 7.54034 31.5003 7.49088 31.4788 7.43497C31.4616 7.37905 31.4358 7.32744 31.4014 7.28014C31.2982 7.15541 31.1541 7.09305 30.9692 7.09305C30.7928 7.09305 30.6208 7.15111 30.4531 7.26723C30.2896 7.38336 30.1348 7.54464 29.9886 7.75108C29.7305 8.12525 29.5176 8.61339 29.3499 9.21551C29.2725 9.48216 29.2144 9.74666 29.1757 10.009C29.137 10.2671 29.1177 10.5015 29.1177 10.7122C29.1177 11.1509 29.1994 11.4476 29.3628 11.6025C29.4187 11.6627 29.4811 11.7014 29.5499 11.7186C29.6187 11.7358 29.6961 11.7444 29.7821 11.7444ZM29.3692 15.2152C29.5069 15.2152 29.6488 15.1184 29.795 14.9249C29.9413 14.7356 30.0552 14.441 30.1369 14.041L30.2144 13.6604C29.8144 13.811 29.5155 13.9636 29.3176 14.1185C29.0553 14.3163 28.9241 14.5378 28.9241 14.7829C28.9241 14.8991 28.9607 14.9958 29.0338 15.0732C29.1155 15.1679 29.2273 15.2152 29.3692 15.2152ZM36.2398 5.62216C36.0979 5.62216 35.9624 5.59636 35.8334 5.54475C35.7044 5.48884 35.5926 5.41357 35.4979 5.31895C35.4033 5.22864 35.3281 5.11897 35.2721 4.98994C35.2205 4.86091 35.1947 4.72544 35.1947 4.58351C35.1947 4.44158 35.2205 4.30611 35.2721 4.17708C35.3281 4.04806 35.4033 3.93408 35.4979 3.83517C35.5926 3.73625 35.7044 3.66098 35.8334 3.60937C35.9624 3.55346 36.0979 3.52551 36.2398 3.52551C36.3818 3.52551 36.5172 3.55346 36.6463 3.60937C36.7753 3.66098 36.8893 3.73625 36.9882 3.83517C37.0871 3.93408 37.1624 4.04806 37.214 4.17708C37.2699 4.30611 37.2978 4.44158 37.2978 4.58351C37.2978 4.72544 37.2699 4.86091 37.214 4.98994C37.1624 5.11897 37.0871 5.22864 36.9882 5.31895C36.8893 5.41357 36.7753 5.48884 36.6463 5.54475C36.5172 5.59636 36.3818 5.62216 36.2398 5.62216ZM35.3431 13.0218C34.9216 13.0218 34.5883 12.897 34.3432 12.6476C34.0679 12.3723 33.9303 11.9702 33.9303 11.4412C33.9303 11.1917 33.9647 10.9036 34.0335 10.5767L34.9302 6.33825H36.8334L35.885 10.8283C35.8506 10.9401 35.8334 11.0821 35.8334 11.2541C35.8334 11.4347 35.8743 11.5616 35.956 11.6347C36.042 11.7078 36.1796 11.7444 36.3689 11.7444C36.4979 11.7444 36.6226 11.7164 36.743 11.6605C36.8678 11.6003 36.9817 11.5186 37.0849 11.4154C37.2957 11.2046 37.4548 10.9251 37.5623 10.5767H38.1172C37.8806 11.2434 37.5838 11.7745 37.2269 12.1702C36.9258 12.4927 36.5861 12.725 36.2076 12.8669C35.9323 12.9701 35.6442 13.0218 35.3431 13.0218ZM38.8784 13.0218C38.4569 13.0218 38.1236 12.897 37.8785 12.6476C37.6032 12.3723 37.4656 11.9702 37.4656 11.4412C37.4656 11.1917 37.5 10.9036 37.5688 10.5767L38.3623 6.86725H37.9236L38.0333 6.33825H38.4655L38.8655 4.51255L40.8202 4.24805L40.3686 6.33825H41.1621L41.0589 6.86725H40.2654L39.4203 10.8283C39.3859 10.9401 39.3687 11.0821 39.3687 11.2541C39.3687 11.4347 39.4096 11.5616 39.4913 11.6347C39.5773 11.7078 39.7149 11.7444 39.9041 11.7444C40.0332 11.7444 40.1579 11.7164 40.2783 11.6605C40.403 11.6003 40.517 11.5186 40.6202 11.4154C40.831 11.2046 40.9901 10.9251 41.0976 10.5767H41.6524C41.4159 11.2434 41.1191 11.7745 40.7622 12.1702C40.4611 12.4927 40.1213 12.725 39.7429 12.8669C39.4676 12.9701 39.1795 13.0218 38.8784 13.0218ZM42.6911 13.0218C42.1879 13.0218 41.7815 12.8648 41.4718 12.5508C41.1105 12.1809 40.9299 11.6304 40.9299 10.8993C40.9299 10.5896 40.9622 10.2628 41.0267 9.9187C41.0869 9.57463 41.1772 9.23487 41.2976 8.8994C41.5729 8.14245 41.9492 7.53173 42.4266 7.06724C42.9771 6.53824 43.6115 6.27374 44.3297 6.27374C44.6867 6.27374 44.9533 6.3361 45.1297 6.46083C45.3103 6.58125 45.4006 6.74253 45.4006 6.94467V7.04144L45.5425 6.33825H47.4457L46.4973 10.8283C46.4586 10.9573 46.4393 11.0993 46.4393 11.2541C46.4393 11.6326 46.6199 11.8218 46.9812 11.8218C47.222 11.8218 47.4414 11.6992 47.6392 11.4541C47.8069 11.2477 47.9446 10.9552 48.0521 10.5767H48.6069C48.3703 11.2477 48.0843 11.7788 47.7489 12.1702C47.465 12.4927 47.1446 12.725 46.7876 12.8669C46.5253 12.9701 46.2479 13.0218 45.9554 13.0218C45.5813 13.0218 45.2823 12.9207 45.0587 12.7185C44.8394 12.5121 44.706 12.2089 44.6587 11.8089C44.4093 12.1616 44.1469 12.4368 43.8717 12.6347C43.519 12.8927 43.1255 13.0218 42.6911 13.0218ZM43.5491 11.7444C43.648 11.7444 43.7512 11.7186 43.8588 11.667C43.9706 11.6154 44.0781 11.5423 44.1813 11.4476C44.4136 11.224 44.5684 10.9337 44.6458 10.5767L45.278 7.59625C45.278 7.55324 45.2673 7.50378 45.2458 7.44787C45.2286 7.38766 45.2028 7.33175 45.1684 7.28014C45.0652 7.15541 44.9211 7.09305 44.7361 7.09305C44.5598 7.09305 44.3878 7.15111 44.22 7.26723C44.0566 7.38336 43.9018 7.54464 43.7555 7.75108C43.4975 8.12525 43.2846 8.61339 43.1169 9.21551C43.0395 9.48216 42.9814 9.74666 42.9427 10.009C42.904 10.2671 42.8846 10.5015 42.8846 10.7122C42.8846 11.1509 42.9663 11.4476 43.1298 11.6025C43.1857 11.6627 43.248 11.7014 43.3169 11.7186C43.3857 11.7358 43.4631 11.7444 43.5491 11.7444ZM49.3681 13.0218C48.9467 13.0218 48.6133 12.897 48.3682 12.6476C48.0929 12.3723 47.9553 11.9702 47.9553 11.4412C47.9553 11.1917 47.9897 10.9036 48.0585 10.5767L49.4714 3.95774L51.4261 3.69324L49.91 10.8283C49.8756 10.9401 49.8584 11.0821 49.8584 11.2541C49.8584 11.4347 49.8993 11.5616 49.981 11.6347C50.067 11.7078 50.2046 11.7444 50.3939 11.7444C50.5229 11.7444 50.6476 11.7164 50.7681 11.6605C50.8928 11.6003 51.0068 11.5186 51.11 11.4154C51.3207 11.2046 51.4798 10.9251 51.5874 10.5767H52.1422C51.9056 11.2434 51.6089 11.7745 51.2519 12.1702C50.9508 12.4927 50.6111 12.725 50.2326 12.8669C49.9574 12.9701 49.6692 13.0218 49.3681 13.0218ZM54.6582 4.11902C54.3872 4.12762 54.1485 4.17923 53.9421 4.27385C53.7399 4.36417 53.5658 4.50825 53.4195 4.70608C53.1013 5.14047 52.9421 5.85656 52.9421 6.85435C52.9421 7.13821 52.9744 7.35755 53.0389 7.51238C53.0561 7.56829 53.0776 7.61775 53.1034 7.66076C53.1206 7.69086 53.1292 7.72097 53.1292 7.75108C52.6561 7.75108 52.3056 7.65646 52.0777 7.46722C51.8325 7.26078 51.7099 6.92747 51.7099 6.46728C51.7099 6.01139 51.7938 5.57915 51.9615 5.17058C52.1336 4.762 52.3938 4.40288 52.7421 4.09322C53.1163 3.75775 53.5916 3.49755 54.1679 3.31261C54.7485 3.12768 55.4323 3.03521 56.2194 3.03521C56.3699 3.03521 56.5204 3.04381 56.671 3.06102L57.0064 3.09327C57.4064 3.13628 57.6666 3.16208 57.787 3.17069C57.972 3.18789 58.1805 3.19649 58.4128 3.19649C58.8816 3.19649 59.2773 3.14273 59.5998 3.03521C59.5611 3.14703 59.5203 3.29541 59.4773 3.48035C59.3826 3.85022 59.2063 4.14268 58.9482 4.35772C58.7977 4.48244 58.5977 4.57061 58.3483 4.62222C57.815 4.62222 57.1978 4.53835 56.4968 4.37062L55.942 6.99628H57.8709L57.658 7.97687H55.7291L54.6582 12.9443H52.755L54.6582 4.11902ZM58.9676 13.0218C58.5461 13.0218 58.2128 12.897 57.9677 12.6476C57.6924 12.3723 57.5548 11.9702 57.5548 11.4412C57.5548 11.1917 57.5892 10.9036 57.658 10.5767L59.0708 3.95774L61.0256 3.69324L59.5095 10.8283C59.4751 10.9401 59.4579 11.0821 59.4579 11.2541C59.4579 11.4347 59.4988 11.5616 59.5805 11.6347C59.6665 11.7078 59.8041 11.7444 59.9934 11.7444C60.1224 11.7444 60.2471 11.7164 60.3675 11.6605C60.4922 11.6003 60.6062 11.5186 60.7094 11.4154C60.9202 11.2046 61.0793 10.9251 61.1868 10.5767H61.7416C61.5051 11.2434 61.2083 11.7745 60.8514 12.1702C60.5503 12.4927 60.2105 12.725 59.8321 12.8669C59.5568 12.9701 59.2687 13.0218 58.9676 13.0218ZM63.1222 12.9959C62.4685 12.9959 61.9631 12.8368 61.6062 12.5186C61.2062 12.1659 61.0062 11.6304 61.0062 10.9122C61.0062 10.6412 61.0342 10.3423 61.0901 10.0155C61.146 9.6843 61.232 9.35099 61.3481 9.01552C61.6148 8.21557 61.9954 7.57689 62.49 7.0995C63.0878 6.51459 63.7996 6.22213 64.6254 6.22213C65.7565 6.22213 66.322 6.92532 66.322 8.33169V8.34459C66.3478 8.35319 66.3693 8.35749 66.3865 8.35749H66.464C66.7564 8.35749 67.1026 8.27578 67.5026 8.11235C67.8553 7.96612 68.1886 7.78333 68.5026 7.56399L68.6187 7.92526C68.3606 8.19621 68.0273 8.42631 67.6187 8.61554C67.2145 8.80478 66.7672 8.94026 66.2769 9.02197C66.2253 9.61979 66.1091 10.166 65.9285 10.6606C65.7479 11.1509 65.5156 11.5724 65.2318 11.925C64.9522 12.2691 64.6318 12.5336 64.2705 12.7185C63.9093 12.9035 63.5265 12.9959 63.1222 12.9959ZM63.6512 11.8089C63.806 11.8089 63.963 11.7401 64.1222 11.6025C64.2856 11.4605 64.4383 11.2649 64.5802 11.0154C64.7221 10.766 64.8447 10.4735 64.9479 10.138C65.0511 9.80258 65.1286 9.44346 65.1802 9.06068C65.0511 9.02627 64.9587 8.96176 64.9028 8.86714C64.8511 8.77253 64.8253 8.6521 64.8253 8.50587C64.8253 8.32524 64.8619 8.17471 64.935 8.05429C65.0081 7.93386 65.1092 7.8457 65.2382 7.78978C65.221 7.51023 65.1759 7.31024 65.1027 7.18982C65.064 7.12961 65.0146 7.0866 64.9544 7.06079C64.8985 7.03499 64.8253 7.02208 64.735 7.02208C64.4383 7.02208 64.148 7.24573 63.8641 7.69302C63.6018 8.09729 63.3867 8.59619 63.219 9.18971C63.0555 9.77032 62.9738 10.2864 62.9738 10.738C62.9738 10.9573 62.9846 11.1358 63.0061 11.2735C63.0319 11.4111 63.0728 11.5186 63.1287 11.596C63.1803 11.6734 63.2469 11.7293 63.3287 11.7638C63.4104 11.7939 63.5179 11.8089 63.6512 11.8089ZM68.309 13.0218C67.8875 13.0218 67.5542 12.897 67.3091 12.6476C67.0338 12.3723 66.8962 11.9702 66.8962 11.4412C66.8962 11.1917 66.9306 10.9036 66.9994 10.5767L67.8961 6.33825H69.7993L68.8509 10.8283C68.8251 10.9358 68.8122 11.0477 68.8122 11.1638C68.8122 11.3315 68.8402 11.4648 68.8961 11.5638C68.9606 11.6842 69.0638 11.7444 69.2057 11.7444C69.4466 11.7444 69.6638 11.6347 69.8573 11.4154C70.0121 11.2305 70.1476 10.9509 70.2637 10.5767L71.1605 6.33825H73.0636L72.1153 10.8283C72.0679 11.052 72.0443 11.2111 72.0443 11.3057C72.0443 11.4433 72.0809 11.5509 72.154 11.6283C72.2271 11.7057 72.3411 11.7444 72.4959 11.7444C72.7023 11.7444 72.9045 11.6713 73.1023 11.5251C73.3001 11.3788 73.4872 11.1767 73.6636 10.9186C73.827 10.6821 73.9775 10.4068 74.1151 10.0929C74.2571 9.77892 74.3775 9.45421 74.4764 9.11874C74.571 8.79188 74.6441 8.47362 74.6958 8.16396C74.7517 7.85 74.7796 7.57259 74.7796 7.33175C74.7624 7.37045 74.7001 7.40271 74.5925 7.42851C74.5237 7.45002 74.4463 7.46077 74.3603 7.46077C74.2098 7.46077 74.0915 7.38766 74.0055 7.24143C73.9238 7.1167 73.8829 6.96617 73.8829 6.78984C73.8829 6.5748 73.9517 6.40276 74.0893 6.27374C74.227 6.14041 74.4313 6.07375 74.7022 6.07375C74.9947 6.07375 75.2119 6.19202 75.3538 6.42857C75.4742 6.62641 75.5344 6.89091 75.5344 7.22207C75.5344 7.58764 75.5022 7.98332 75.4377 8.4091C75.3774 8.83489 75.285 9.25422 75.1602 9.6671C74.8592 10.6477 74.4528 11.4197 73.941 11.9831C73.3216 12.6755 72.597 13.0218 71.7669 13.0218C71.3325 13.0218 70.9798 12.9293 70.7089 12.7443C70.4379 12.5594 70.2637 12.282 70.1863 11.9121C69.9068 12.3379 69.5799 12.6411 69.2057 12.8218C68.9391 12.9551 68.6402 13.0218 68.309 13.0218Z" fill="url(#paint0_linear_81_3309)"/>
<path d="M12.1704 16.15C10.8719 16.7736 9.43612 17.0566 7.99807 16.9726C6.56007 16.8886 5.16703 16.4402 3.95 15.6696C2.73295 14.8991 1.73188 13.8316 1.04092 12.5677C0.349958 11.3038 -0.00819414 9.88483 0.000142269 8.44437C0.0084782 7.00391 0.383029 5.58927 1.08857 4.33341C1.79412 3.07755 2.80748 2.02177 4.03336 1.26533C5.25923 0.508901 6.65737 0.0766738 8.09626 0.00929737C9.53516 -0.058079 10.9676 0.241607 12.2588 0.880177L10.4215 4.59513C9.76034 4.26815 9.02692 4.1147 8.29011 4.14919C7.55334 4.1837 6.83743 4.40501 6.20971 4.79234C5.58199 5.17969 5.06313 5.7203 4.70182 6.36336C4.34056 7.00641 4.14878 7.73077 4.14451 8.46839C4.14023 9.20596 4.32363 9.93249 4.67743 10.5797C5.03123 11.2269 5.54381 11.7735 6.167 12.168C6.79019 12.5626 7.50351 12.7922 8.23985 12.8352C8.97619 12.8783 9.71136 12.7333 10.3763 12.414L12.1704 16.15Z" fill="url(#paint1_linear_81_3309)"/>
<path d="M8.39323 11.3255C10.0127 11.3255 11.3255 10.0127 11.3255 8.39323C11.3255 6.77377 10.0127 5.46094 8.39323 5.46094C6.77377 5.46094 5.46094 6.77377 5.46094 8.39323C5.46094 10.0127 6.77377 11.3255 8.39323 11.3255Z" fill="#B982FF"/>
<defs>
<linearGradient id="paint0_linear_81_3309" x1="15.041" y1="8.49415" x2="75.9114" y2="8.49415" gradientUnits="userSpaceOnUse">
<stop stop-color="#13C0CE"/>
<stop offset="1" stop-color="#7D2DE7"/>
</linearGradient>
<linearGradient id="paint1_linear_81_3309" x1="13.7396" y1="1.81112" x2="1.68622" y2="13.8645" gradientUnits="userSpaceOnUse">
<stop stop-color="#18C8FF"/>
<stop offset="1" stop-color="#933FFE"/>
</linearGradient>
</defs>
</svg>
